<svg xmlns="http://www.w3.org/2000/svg" version="1.0" width="64.000000pt" height="64.000000pt" viewBox="0 0 64.000000 64.000000" preserveAspectRatio="xMidYMid meet">

<g transform="translate(0.000000,64.000000) scale(0.100000,-0.100000)" fill="#000000" stroke="none">
<path d="M307 524 c-4 -4 -7 -52 -7 -107 l0 -100 -23 21 c-26 25 -47 29 -47 9 0 -18 72 -87 91 -87 18 0 89 70 89 88 0 19 -25 14 -46 -9 -19 -21 -19 -20 -24 82 -5 94 -14 122 -33 103z"/>
<path d="M107 224 c-12 -12 -8 -99 5 -112 19 -19 402 -17 417 2 18 21 10 111 -9 111 -11 0 -16 -13 -18 -47 l-3 -48 -179 0 -179 0 -3 47 c-3 44 -15 62 -31 47z"/>
</g>
</svg>