<svg width="14" height="9" viewBox="0 0 14 9" fill="none" xmlns="http://www.w3.org/2000/svg">
<path d="M13.629 5.30318C13.6074 4.99142 13.5637 4.65133 13.4994 4.2922C13.4344 3.93038 13.3508 3.58834 13.2507 3.27572C13.1472 2.9526 13.0067 2.63351 12.8328 2.32773C12.6525 2.01034 12.4406 1.73398 12.2028 1.50656C11.9541 1.26865 11.6497 1.07736 11.2976 0.937835C10.9468 0.799042 10.558 0.728729 10.1421 0.728729C9.97876 0.728729 9.8208 0.795746 9.51575 0.994354C9.328 1.11679 9.1084 1.25839 8.86328 1.41501C8.65369 1.54855 8.36975 1.67367 8.01904 1.78695C7.67688 1.89767 7.32947 1.95382 6.98645 1.95382C6.64368 1.95382 6.29626 1.89767 5.95386 1.78695C5.60352 1.6738 5.31946 1.54867 5.11023 1.41513C4.86743 1.25998 4.64771 1.11838 4.45715 0.994232C4.15234 0.795624 3.99438 0.728607 3.83105 0.728607C3.41504 0.728607 3.02637 0.799042 2.67566 0.937957C2.32385 1.07724 2.01929 1.26852 1.77039 1.50668C1.53259 1.73422 1.32068 2.01047 1.1405 2.32773C0.966797 2.63351 0.826172 2.95248 0.722656 3.27584C0.622681 3.58847 0.539062 3.93038 0.474121 4.2922C0.409668 4.65084 0.366089 4.99105 0.344482 5.30355C0.323242 5.60909 0.3125 5.92708 0.3125 6.24837C0.3125 7.08358 0.578003 7.75972 1.10156 8.25838C1.61865 8.75044 2.30273 8.99995 3.13489 8.99995H10.839C11.6709 8.99995 12.355 8.75044 12.8722 8.25838C13.3959 7.76009 13.6614 7.0837 13.6614 6.24825C13.6613 5.92586 13.6504 5.60787 13.629 5.30318ZM12.2257 7.57906C11.884 7.90425 11.4304 8.06233 10.8389 8.06233H3.13489C2.54321 8.06233 2.0896 7.90425 1.74805 7.57918C1.41296 7.26021 1.25012 6.82479 1.25012 6.24837C1.25012 5.94857 1.26001 5.65255 1.27979 5.36837C1.29907 5.08956 1.3385 4.78329 1.39697 4.45785C1.45471 4.13644 1.5282 3.8348 1.6156 3.56173C1.69946 3.29989 1.81384 3.04061 1.95569 2.79086C2.09106 2.55282 2.24683 2.3486 2.4187 2.18405C2.57947 2.03012 2.7821 1.90414 3.02087 1.80966C3.2417 1.72226 3.48987 1.67441 3.75928 1.6672C3.79211 1.68466 3.85059 1.71799 3.94531 1.77975C4.13806 1.90536 4.36023 2.04867 4.60583 2.20553C4.88269 2.38205 5.23938 2.54147 5.66553 2.67904C6.1012 2.81991 6.54553 2.89144 6.98657 2.89144C7.42761 2.89144 7.87207 2.81991 8.3075 2.67917C8.73401 2.54135 9.09058 2.38205 9.3678 2.20529C9.61914 2.04464 9.83508 1.90548 10.0278 1.77975C10.1226 1.71811 10.181 1.68466 10.2139 1.6672C10.4834 1.67441 10.7316 1.72226 10.9525 1.80966C11.1912 1.90414 11.3938 2.03024 11.5546 2.18405C11.7264 2.34848 11.8822 2.5527 12.0176 2.79098C12.1595 3.04061 12.274 3.30001 12.3578 3.56161C12.4453 3.83505 12.5189 4.13656 12.5765 4.45773C12.6349 4.78378 12.6744 5.09017 12.6937 5.36849V5.36874C12.7136 5.65182 12.7236 5.94771 12.7238 6.24837C12.7236 6.82491 12.5608 7.26021 12.2257 7.57906Z" fill="#999999"/>
</svg>
