<svg width="9" height="11" viewBox="0 0 9 11" fill="none" xmlns="http://www.w3.org/2000/svg">
<path d="M7.4138 4.67797V2.93598C7.41846 2.14776 7.10364 1.38987 6.54163 0.837185C5.99828 0.296163 5.28702 0 4.53379 0C4.52213 0 4.50814 0 4.49648 0C2.88973 0.00233199 1.58382 1.31757 1.58382 2.93598V4.67797C0.977502 4.75027 0.534424 5.25864 0.534424 5.87428V9.78736C0.534424 10.452 1.06612 11 1.73073 11H7.26921C7.93383 11 8.46552 10.452 8.46552 9.78736V5.87428C8.46319 5.26097 8.02011 4.75027 7.4138 4.67797ZM2.04789 2.93598H2.05022C2.05022 1.57409 3.14859 0.459402 4.49881 0.459402H4.50114C5.14244 0.45707 5.75808 0.711257 6.21282 1.16366C6.68621 1.63239 6.94973 2.27136 6.94507 2.93598V4.68031H6.43203V2.93598C6.43669 2.40661 6.22681 1.89824 5.85136 1.52512C5.4969 1.17066 5.01651 0.970108 4.51513 0.970108H4.50114C3.42842 0.970108 2.56092 1.8516 2.56092 2.93364V4.68031H2.04789V2.93598ZM5.96796 2.93598V4.68031H3.02965V2.93598C3.02965 2.11045 3.68727 1.43884 4.50347 1.43884H4.51746C4.89525 1.43884 5.25904 1.59042 5.52722 1.8586C5.81172 2.1431 5.97263 2.53254 5.96796 2.93598ZM8.02011 9.79436C8.02011 10.2025 7.68897 10.5336 7.28087 10.5336H1.74006C1.33196 10.5336 1.00082 10.2025 1.00082 9.79436V5.88594C1.00082 5.47785 1.33196 5.1467 1.74006 5.1467H7.28087C7.68897 5.1467 8.02011 5.47785 8.02011 5.88594V9.79436Z" fill="#999999"/>
</svg>
