
<svg version="1.0" xmlns="http://www.w3.org/2000/svg"
 width="348.000000pt" height="349.000000pt" viewBox="0 0 348.000000 349.000000"
 preserveAspectRatio="xMidYMid meet">

<g transform="translate(0.000000,349.000000) scale(0.100000,-0.100000)"
fill="#000000" stroke="none">
<path d="M1465 3475 c-174 -33 -381 -102 -533 -179 -224 -113 -475 -335 -633
-560 -104 -147 -210 -387 -265 -601 -29 -108 -29 -114 -29 -390 0 -261 2 -286
24 -375 88 -351 245 -633 488 -872 203 -201 419 -332 697 -423 151 -49 250
-65 451 -72 355 -11 555 31 860 182 476 235 799 657 932 1215 27 112 26 580
-1 695 -149 639 -579 1116 -1183 1314 -179 59 -258 71 -508 76 -169 4 -239 1
-300 -10z m560 -220 c174 -31 384 -116 550 -223 280 -180 500 -462 620 -792
51 -142 66 -231 72 -435 9 -305 -26 -478 -152 -742 l-55 -115 -51 46 c-69 62
-153 116 -289 185 -111 56 -409 181 -433 181 -7 0 -48 -29 -92 -65 -92 -75
-206 -138 -291 -160 -67 -17 -245 -20 -314 -4 -77 17 -221 95 -305 163 -44 36
-85 66 -92 66 -21 0 -316 -122 -418 -172 -121 -61 -249 -143 -310 -199 l-45
-42 -50 104 c-184 388 -215 791 -89 1174 42 126 126 294 200 400 84 119 271
304 384 381 199 136 441 229 690 268 60 9 383 -4 470 -19z"/>
<path d="M1582 2860 c-242 -64 -432 -254 -504 -505 -32 -115 -31 -292 5 -425
104 -395 416 -687 701 -655 364 40 689 540 636 977 -50 417 -452 709 -838 608z"/>
</g>
</svg>
