<svg width="17" height="17" viewBox="0 0 17 17" fill="none" xmlns="http://www.w3.org/2000/svg">
<path d="M13.0032 7.2296V4.53742C13.0104 3.31927 12.5239 2.14798 11.6553 1.29383C10.8156 0.457706 9.71635 0 8.55226 0C8.53424 0 8.51262 0 8.4946 0C6.01145 0.00360399 3.99322 2.03625 3.99322 4.53742V7.2296C3.05619 7.34132 2.37143 8.12699 2.37143 9.07844V15.1259C2.37143 16.1531 3.19314 17 4.22027 17H12.7797C13.8069 17 14.6286 16.1531 14.6286 15.1259V9.07844C14.625 8.13059 13.9402 7.34132 13.0032 7.2296ZM4.71042 4.53742H4.71402C4.71402 2.43269 6.4115 0.709985 8.4982 0.709985H8.50181C9.4929 0.706381 10.4444 1.09922 11.1471 1.79839C11.8787 2.52279 12.286 3.51028 12.2788 4.53742V7.2332H11.4859V4.53742C11.4931 3.71931 11.1688 2.93364 10.5885 2.35701C10.0407 1.8092 9.29829 1.49926 8.52343 1.49926H8.50181C6.84398 1.49926 5.50329 2.86156 5.50329 4.53381V7.2332H4.71042V4.53742ZM10.7687 4.53742V7.2332H6.22769V4.53742C6.22769 3.26161 7.24402 2.22366 8.50541 2.22366H8.52704C9.11088 2.22366 9.6731 2.45792 10.0876 2.87238C10.5272 3.31206 10.7759 3.91393 10.7687 4.53742ZM13.9402 15.1367C13.9402 15.7674 13.4285 16.2792 12.7978 16.2792H4.23469C3.60399 16.2792 3.09223 15.7674 3.09223 15.1367V9.09646C3.09223 8.46576 3.60399 7.954 4.23469 7.954H12.7978C13.4285 7.954 13.9402 8.46576 13.9402 9.09646V15.1367Z" fill="#000842"/>
<path d="M9.74519 11.8932C9.58662 11.3345 9.07846 10.9525 8.49821 10.9525C7.78102 10.9525 7.19717 11.5328 7.19717 12.2536C7.19717 12.8338 7.5792 13.342 8.13781 13.5005V14.5096C8.13781 14.7079 8.29999 14.87 8.49821 14.87C8.69643 14.87 8.85861 14.7079 8.85861 14.5096V13.5005C9.54697 13.3023 9.94702 12.5815 9.74519 11.8932ZM8.49821 12.8302C8.17746 12.8302 7.91797 12.5707 7.91797 12.2499C7.91797 11.9292 8.17746 11.6697 8.49821 11.6697C8.81897 11.6697 9.07846 11.9292 9.07846 12.2499C9.07846 12.5707 8.81897 12.8302 8.49821 12.8302Z" fill="#000842"/>
</svg>
