<svg width="42" height="42" viewBox="0 0 42 42" fill="none" xmlns="http://www.w3.org/2000/svg">
<path d="M39.4107 21.1315C39.4107 19.6402 39.2873 18.5519 39.02 17.4234H21.6434V24.1544H31.8431C31.6375 25.8271 30.5271 28.3462 28.0593 30.039L28.0247 30.2643L33.5189 34.4355L33.8995 34.4727C37.3954 31.3087 39.4107 26.6533 39.4107 21.1315" fill="#4285F4"/>
<path d="M21.6422 38.8662C26.6392 38.8662 30.8342 37.2539 33.8984 34.4729L28.0581 30.0391C26.4953 31.1072 24.3977 31.8529 21.6422 31.8529C16.748 31.8529 12.5941 28.6889 11.1133 24.3157L10.8963 24.3338L5.18338 28.6667L5.10867 28.8702C8.15212 34.7952 14.4036 38.8662 21.6422 38.8662Z" fill="#34A853"/>
<path d="M11.1144 24.3158C10.7237 23.1873 10.4976 21.978 10.4976 20.7286C10.4976 19.479 10.7237 18.2699 11.0939 17.1414L11.0835 16.901L5.29899 12.4985L5.10973 12.5868C3.85537 15.0454 3.13562 17.8064 3.13562 20.7286C3.13562 23.6507 3.85537 26.4116 5.10973 28.8703L11.1144 24.3158Z" fill="#FBBC05"/>
<path d="M21.6423 9.60421C25.1176 9.60421 27.4619 11.0754 28.7986 12.3048L34.0219 7.30683C30.814 4.38468 26.6393 2.59106 21.6423 2.59106C14.4037 2.59106 8.15214 6.66191 5.10867 12.5868L11.0928 17.1414C12.5941 12.7682 16.7481 9.60421 21.6423 9.60421Z" fill="#EB4335"/>
</svg>
