<svg width="14" height="14" viewBox="0 0 14 14" fill="none" xmlns="http://www.w3.org/2000/svg">
<path d="M6.89342 4.78274L8.89752 6.78683L8.90706 6.68185C8.90706 5.6289 8.05135 4.77319 6.9984 4.77319L6.89342 4.78274Z" fill="#ABABAB"/>
<path d="M6.99841 3.50075C8.75438 3.50075 10.1795 4.9259 10.1795 6.68186C10.1795 7.09222 10.0968 7.4835 9.95367 7.84295L11.8146 9.70389C12.7753 8.90225 13.5324 7.86523 14 6.68186C12.8962 3.88887 10.1827 1.91022 6.99844 1.91022C6.10772 1.91022 5.25521 2.06926 4.46312 2.35556L5.83735 3.7266C6.19677 3.58664 6.58805 3.50075 6.99841 3.50075Z" fill="#ABABAB"/>
<path d="M0.636209 1.76711L2.08679 3.21769L2.37628 3.50718C1.32652 4.3279 0.496251 5.41903 0 6.6819C1.10067 9.4749 3.81731 11.4535 6.99842 11.4535C7.98457 11.4535 8.92616 11.2627 9.78825 10.9159L10.0587 11.1863L11.9132 13.0441L12.7244 12.2361L1.44739 0.955933L0.636209 1.76711ZM4.15452 5.28223L5.13748 6.26519C5.10885 6.40199 5.08976 6.53875 5.08976 6.6819C5.08976 7.73486 5.94547 8.59056 6.99842 8.59056C7.14157 8.59056 7.27836 8.57147 7.41197 8.54284L8.39493 9.5258C7.97183 9.73576 7.50105 9.86301 6.99842 9.86301C5.24245 9.86301 3.81731 8.43787 3.81731 6.6819C3.81731 6.1793 3.94457 5.70849 4.15452 5.28223Z" fill="#ABABAB"/>
</svg>
